Coordinates
version=1
nRows=7
nColumns=46
inDegrees=yes

Units are S.I. units (second, meters, Newtons, ...)
Angles are in degrees.

endheader
time	pelvis_tilt	pelvis_list	pelvis_rotation	pelvis_tx	pelvis_ty	pelvis_tz	bb_angle	bb_tx	bb_ty	bb_tz	hip_flexion_r	hip_adduction_r	hip_rotation_r	knee_angle_r	knee_angle_r_beta	ankle_angle_r	subtalar_angle_r	mtp_angle_r	crank_angle_r	hip_flexion_l	hip_adduction_l	hip_rotation_l	knee_angle_l	knee_angle_l_beta	ankle_angle_l	subtalar_angle_l	mtp_angle_l	crank_angle_l	lumbar_extension	lumbar_bending	lumbar_rotation	arm_flex_r	arm_add_r	arm_rot_r	elbow_flex_r	pro_sup_r	wrist_flex_r	wrist_dev_r	arm_flex_l	arm_add_l	arm_rot_l	elbow_flex_l	pro_sup_l	wrist_flex_l	wrist_dev_l
      0.00500000	    -17.50759125	     -6.73641924	     -2.45985293	      0.12770425	      1.13551430	     -0.23685694	      0.00000000	      0.50000000	      0.00000000	      0.25000000	     89.96812632	     -7.88220819	     -7.23381589	     99.27523312	      1.73267968	     25.15855752	      3.06830893	      0.00000000	      0.00000000	     47.57659021	    -15.29604489	     -4.08305367	     56.94297517	      0.99384240	     20.35513664	      6.46291416	      0.00000000	      0.00000000	    -47.42168398	      5.63636106	      9.29494968	     89.18807672	    -11.01930215	     37.80255341	     29.41493642	     27.72491687	      0.00000000	      0.00000000	     89.24577660	     -1.33628106	     40.56371094	     20.67721496	     25.11441095	      0.00000000	      0.00000000
      0.01000000	    -17.51291393	     -6.76782925	     -2.46536032	      0.12769009	      1.13552933	     -0.23685708	      0.00000000	      0.50000000	      0.00000000	      0.25000000	     89.96216842	     -7.87407848	     -7.27312464	     99.26420103	      1.73248714	     25.14902047	      3.02383141	      0.00000000	      0.00000000	     47.58621695	    -15.32069016	     -4.05630136	     56.93936722	      0.99377943	     20.38951153	      6.45255346	      0.00000000	      0.00000000	    -47.42489268	      5.67399798	      9.32122824	     89.18626804	    -10.89664076	     37.37167446	     29.18703066	     28.94831523	      0.00000000	      0.00000000	     89.24042654	     -1.16333383	     39.66350432	     20.39110329	     26.35266266	      0.00000000	      0.00000000
      0.01500000	    -17.52338840	     -6.76030298	     -2.47772637	      0.12768163	      1.13549624	     -0.23684841	      0.00000000	      0.50000000	      0.00000000	      0.25000000	     89.98257650	     -7.86076200	     -7.26119905	     99.27018687	      1.73259161	     25.11918042	      3.00554393	      0.00000000	      0.00000000	     47.59619331	    -15.32077197	     -4.06391445	     56.94380767	      0.99385693	     20.36620557	      6.43175219	      0.00000000	      0.00000000	    -47.40474226	      5.67308506	      9.29470686	     89.20599124	    -11.07614586	     37.97462558	     28.82792086	     31.31408763	      0.00000000	      0.00000000	     89.25311072	     -1.59887236	     41.24779722	     20.12483597	     28.56162833	      0.00000000	      0.00000000
      0.02000000	    -17.61780522	     -6.88907051	     -2.56600562	      0.12761396	      1.13505426	     -0.23637418	      0.00000000	      0.50000000	      0.00000000	      0.25000000	     90.10461237	     -7.69281724	     -7.37631083	     99.28734573	      1.73289109	     25.06101739	      2.88826963	      0.00000000	      0.00000000	     47.72232710	    -15.38041090	     -3.84767289	     56.95086892	      0.99398017	     20.39584358	      6.56941074	      0.00000000	      0.00000000	    -47.27600884	      5.66763732	      9.48297110	     89.17732643	    -10.98085243	     37.31084231	     28.64691864	     31.77933384	      0.00000000	      0.00000000	     89.26352108	     -1.16604487	     40.06039493	     19.75977886	     28.96119203	      0.00000000	      0.00000000
      0.02500000	    -17.62365486	     -6.81257303	     -2.56509378	      0.12744089	      1.13530786	     -0.23663209	      0.00000000	      0.50000000	      0.00000000	      0.25000000	     90.12222400	     -7.68447823	     -7.27672345	     99.25494797	      1.73232564	     25.04202370	      2.84735680	      0.00000000	      0.00000000	     47.72334295	    -15.41021738	     -3.98959950	     56.98110110	      0.99450783	     20.49471029	      6.65010476	      0.00000000	      0.00000000	    -47.27654781	      5.55995066	      9.47716022	     89.14574216	    -10.90216428	     36.75341381	     28.52882788	     32.31546633	      0.00000000	      0.00000000	     89.24571759	     -1.02298584	     39.15621443	     19.78566597	     29.52215982	      0.00000000	      0.00000000
      0.03000000	    -17.62362106	     -6.83120535	     -2.53615581	      0.12737215	      1.13527415	     -0.23670528	      0.00000000	      0.50000000	      0.00000000	      0.25000000	     90.12123829	     -7.71706440	     -7.29475123	     99.26339161	      1.73247301	     25.03893929	      2.86080033	      0.00000000	      0.00000000	     47.76904991	    -15.41635633	     -3.94225908	     57.03016357	      0.99536413	     20.47150970	      6.51487046	      0.00000000	      0.00000000	    -47.26929803	      5.58540861	      9.43813888	     89.15120033	    -10.87984417	     36.76448439	     28.42032931	     32.67267318	      0.00000000	      0.00000000	     89.24907868	     -1.01078246	     38.88287084	     19.70705734	     29.83001345	      0.00000000	      0.00000000
      0.03500000	    -17.55243145	     -6.86574813	     -2.54336322	      0.12742488	      1.13542472	     -0.23672842	      0.00000000	      0.50000000	      0.00000000	      0.25000000	     90.02552203	     -7.69726372	     -7.30993614	     99.26291304	      1.73246466	     25.14390815	      3.03771962	      0.00000000	      0.00000000	     47.68146837	    -15.47717314	     -3.97213164	     57.02718626	      0.99531216	     20.58118681	      6.73955044	      0.00000000	      0.00000000	    -47.40223315	      5.61254295	      9.53491137	     89.13956605	    -10.93493613	     36.42363147	     28.68765436	     32.74210299	      0.00000000	      0.00000000	     89.21705472	     -1.06284319	     38.47157586	     20.14714810	     29.90636325	      0.00000000	      0.00000000
